<mxfile host="app.diagrams.net" modified="2021-05-17T03:54:32.145Z" agent="5.0 (Windows NT 10.0; Win64; x64) AppleWebKit/537.36 (KHTML, like Gecko) Chrome/90.0.4430.212 Safari/537.36" etag="98Tb9jGoM7i3WGSTLprv" version="14.6.13" type="github">
  <diagram id="IA6vnJar6YpkLh92kGP5" name="Page-1">
    <mxGraphModel dx="1422" dy="794" grid="1" gridSize="10" guides="1" tooltips="1" connect="1" arrows="1" fold="1" page="1" pageScale="1" pageWidth="827" pageHeight="1169" math="0" shadow="0">
      <root>
        <mxCell id="0" />
        <mxCell id="1" parent="0" />
        <mxCell id="X9iEGQulfITKtsvHbGKT-3" style="edgeStyle=orthogonalEdgeStyle;rounded=0;orthogonalLoop=1;jettySize=auto;html=1;" parent="1" source="X9iEGQulfITKtsvHbGKT-1" target="X9iEGQulfITKtsvHbGKT-2" edge="1">
          <mxGeometry relative="1" as="geometry" />
        </mxCell>
        <mxCell id="X9iEGQulfITKtsvHbGKT-5" style="edgeStyle=orthogonalEdgeStyle;rounded=0;orthogonalLoop=1;jettySize=auto;html=1;entryX=0;entryY=0.5;entryDx=0;entryDy=0;" parent="1" source="X9iEGQulfITKtsvHbGKT-1" target="X9iEGQulfITKtsvHbGKT-4" edge="1">
          <mxGeometry relative="1" as="geometry" />
        </mxCell>
        <mxCell id="X9iEGQulfITKtsvHbGKT-1" value="Class1" style="rounded=0;whiteSpace=wrap;html=1;" parent="1" vertex="1">
          <mxGeometry x="240" y="210" width="120" height="60" as="geometry" />
        </mxCell>
        <mxCell id="X9iEGQulfITKtsvHbGKT-2" value="Class2" style="rounded=0;whiteSpace=wrap;html=1;" parent="1" vertex="1">
          <mxGeometry x="240" y="400" width="120" height="60" as="geometry" />
        </mxCell>
        <mxCell id="X9iEGQulfITKtsvHbGKT-4" value="Class3" style="rounded=0;whiteSpace=wrap;html=1;" parent="1" vertex="1">
          <mxGeometry x="510" y="210" width="120" height="60" as="geometry" />
        </mxCell>
        <mxCell id="t_xe0eKH9HwU5Cgef5Tc-1" value="Class2" style="rounded=0;whiteSpace=wrap;html=1;" vertex="1" parent="1">
          <mxGeometry x="520" y="400" width="120" height="60" as="geometry" />
        </mxCell>
        <mxCell id="t_xe0eKH9HwU5Cgef5Tc-2" value="Vertical Container" style="swimlane;" vertex="1" parent="1">
          <mxGeometry x="250" y="570" width="200" height="200" as="geometry" />
        </mxCell>
        <mxCell id="t_xe0eKH9HwU5Cgef5Tc-3" value="Table" style="shape=table;startSize=30;container=1;collapsible=1;childLayout=tableLayout;fixedRows=1;rowLines=0;fontStyle=1;align=center;resizeLast=1;" vertex="1" parent="1">
          <mxGeometry x="20" y="590" width="180" height="190" as="geometry" />
        </mxCell>
        <mxCell id="t_xe0eKH9HwU5Cgef5Tc-4" value="" style="shape=partialRectangle;collapsible=0;dropTarget=0;pointerEvents=0;fillColor=none;top=0;left=0;bottom=1;right=0;points=[[0,0.5],[1,0.5]];portConstraint=eastwest;" vertex="1" parent="t_xe0eKH9HwU5Cgef5Tc-3">
          <mxGeometry y="30" width="180" height="30" as="geometry" />
        </mxCell>
        <mxCell id="t_xe0eKH9HwU5Cgef5Tc-5" value="PK" style="shape=partialRectangle;connectable=0;fillColor=none;top=0;left=0;bottom=0;right=0;fontStyle=1;overflow=hidden;" vertex="1" parent="t_xe0eKH9HwU5Cgef5Tc-4">
          <mxGeometry width="30" height="30" as="geometry" />
        </mxCell>
        <mxCell id="t_xe0eKH9HwU5Cgef5Tc-6" value="UniqueID" style="shape=partialRectangle;connectable=0;fillColor=none;top=0;left=0;bottom=0;right=0;align=left;spacingLeft=6;fontStyle=5;overflow=hidden;" vertex="1" parent="t_xe0eKH9HwU5Cgef5Tc-4">
          <mxGeometry x="30" width="150" height="30" as="geometry" />
        </mxCell>
        <mxCell id="t_xe0eKH9HwU5Cgef5Tc-7" value="" style="shape=partialRectangle;collapsible=0;dropTarget=0;pointerEvents=0;fillColor=none;top=0;left=0;bottom=0;right=0;points=[[0,0.5],[1,0.5]];portConstraint=eastwest;" vertex="1" parent="t_xe0eKH9HwU5Cgef5Tc-3">
          <mxGeometry y="60" width="180" height="30" as="geometry" />
        </mxCell>
        <mxCell id="t_xe0eKH9HwU5Cgef5Tc-8" value="" style="shape=partialRectangle;connectable=0;fillColor=none;top=0;left=0;bottom=0;right=0;editable=1;overflow=hidden;" vertex="1" parent="t_xe0eKH9HwU5Cgef5Tc-7">
          <mxGeometry width="30" height="30" as="geometry" />
        </mxCell>
        <mxCell id="t_xe0eKH9HwU5Cgef5Tc-9" value="Row 1" style="shape=partialRectangle;connectable=0;fillColor=none;top=0;left=0;bottom=0;right=0;align=left;spacingLeft=6;overflow=hidden;" vertex="1" parent="t_xe0eKH9HwU5Cgef5Tc-7">
          <mxGeometry x="30" width="150" height="30" as="geometry" />
        </mxCell>
        <mxCell id="t_xe0eKH9HwU5Cgef5Tc-10" value="" style="shape=partialRectangle;collapsible=0;dropTarget=0;pointerEvents=0;fillColor=none;top=0;left=0;bottom=0;right=0;points=[[0,0.5],[1,0.5]];portConstraint=eastwest;" vertex="1" parent="t_xe0eKH9HwU5Cgef5Tc-3">
          <mxGeometry y="90" width="180" height="30" as="geometry" />
        </mxCell>
        <mxCell id="t_xe0eKH9HwU5Cgef5Tc-11" value="" style="shape=partialRectangle;connectable=0;fillColor=none;top=0;left=0;bottom=0;right=0;editable=1;overflow=hidden;" vertex="1" parent="t_xe0eKH9HwU5Cgef5Tc-10">
          <mxGeometry width="30" height="30" as="geometry" />
        </mxCell>
        <mxCell id="t_xe0eKH9HwU5Cgef5Tc-12" value="Row 2" style="shape=partialRectangle;connectable=0;fillColor=none;top=0;left=0;bottom=0;right=0;align=left;spacingLeft=6;overflow=hidden;" vertex="1" parent="t_xe0eKH9HwU5Cgef5Tc-10">
          <mxGeometry x="30" width="150" height="30" as="geometry" />
        </mxCell>
        <mxCell id="t_xe0eKH9HwU5Cgef5Tc-13" value="" style="shape=partialRectangle;collapsible=0;dropTarget=0;pointerEvents=0;fillColor=none;top=0;left=0;bottom=0;right=0;points=[[0,0.5],[1,0.5]];portConstraint=eastwest;" vertex="1" parent="t_xe0eKH9HwU5Cgef5Tc-3">
          <mxGeometry y="120" width="180" height="30" as="geometry" />
        </mxCell>
        <mxCell id="t_xe0eKH9HwU5Cgef5Tc-14" value="" style="shape=partialRectangle;connectable=0;fillColor=none;top=0;left=0;bottom=0;right=0;editable=1;overflow=hidden;" vertex="1" parent="t_xe0eKH9HwU5Cgef5Tc-13">
          <mxGeometry width="30" height="30" as="geometry" />
        </mxCell>
        <mxCell id="t_xe0eKH9HwU5Cgef5Tc-15" value="Row 3" style="shape=partialRectangle;connectable=0;fillColor=none;top=0;left=0;bottom=0;right=0;align=left;spacingLeft=6;overflow=hidden;" vertex="1" parent="t_xe0eKH9HwU5Cgef5Tc-13">
          <mxGeometry x="30" width="150" height="30" as="geometry" />
        </mxCell>
        <mxCell id="t_xe0eKH9HwU5Cgef5Tc-17" value="" style="shape=partialRectangle;collapsible=0;dropTarget=0;pointerEvents=0;fillColor=none;top=0;left=0;bottom=0;right=0;points=[[0,0.5],[1,0.5]];portConstraint=eastwest;" vertex="1" parent="t_xe0eKH9HwU5Cgef5Tc-3">
          <mxGeometry y="150" width="180" height="30" as="geometry" />
        </mxCell>
        <mxCell id="t_xe0eKH9HwU5Cgef5Tc-18" value="" style="shape=partialRectangle;connectable=0;fillColor=none;top=0;left=0;bottom=0;right=0;editable=1;overflow=hidden;" vertex="1" parent="t_xe0eKH9HwU5Cgef5Tc-17">
          <mxGeometry width="30" height="30" as="geometry" />
        </mxCell>
        <mxCell id="t_xe0eKH9HwU5Cgef5Tc-19" value="Hello int:go" style="shape=partialRectangle;connectable=0;fillColor=none;top=0;left=0;bottom=0;right=0;align=left;spacingLeft=6;overflow=hidden;" vertex="1" parent="t_xe0eKH9HwU5Cgef5Tc-17">
          <mxGeometry x="30" width="150" height="30" as="geometry" />
        </mxCell>
      </root>
    </mxGraphModel>
  </diagram>
</mxfile>
